<?xml version="1.0" standalone="no"?>
<!DOCTYPE svg PUBLIC "-//W3C//DTD SVG 20010904//EN"
 "http://www.w3.org/TR/2001/REC-SVG-20010904/DTD/svg10.dtd">
<svg version="1.0" xmlns="http://www.w3.org/2000/svg"
 width="512.000000pt" height="512.000000pt" viewBox="0 0 512.000000 512.000000"
 preserveAspectRatio="xMidYMid meet">
<metadata>
Created by potrace 1.16, written by Peter Selinger 2001-2019
</metadata>
<g transform="translate(0.000000,512.000000) scale(0.100000,-0.100000)"
fill="#000000" stroke="none">
<path d="M361 5094 l-21 -27 0 -2443 0 -2444 -170 0 -170 0 0 -90 0 -90 2560
0 2560 0 0 90 0 90 -210 0 -210 0 0 215 0 215 41 21 c64 32 136 111 172 187
27 58 32 81 35 166 7 166 -31 280 -124 374 -68 68 -128 94 -217 94 -172 0
-312 -152 -339 -370 -25 -193 47 -354 198 -444 l54 -33 0 -212 0 -213 -210 0
-210 0 0 1334 c0 1295 -1 1334 -19 1357 -11 14 -155 92 -340 184 l-320 159 -3
248 c-3 238 -4 248 -25 269 -16 16 -154 59 -540 169 -285 81 -544 155 -575
164 l-58 17 0 493 c0 484 0 494 -21 520 l-20 26 -899 0 -899 0 -20 -26z m1679
-2534 l0 -2380 -760 0 -760 0 0 80 0 80 380 0 380 0 0 90 0 90 -380 0 -380 0
0 165 0 165 380 0 380 0 0 90 0 90 -380 0 -380 0 0 165 0 165 380 0 380 0 0
90 0 90 -380 0 -380 0 0 165 0 165 380 0 380 0 0 90 0 90 -380 0 -380 0 0 165
0 165 380 0 380 0 0 90 0 90 -380 0 -380 0 0 170 0 170 380 0 380 0 0 90 0 90
-380 0 -380 0 0 165 0 165 380 0 380 0 0 90 0 90 -380 0 -380 0 0 165 0 165
380 0 380 0 0 90 0 90 -380 0 -380 0 0 165 0 165 380 0 380 0 0 90 0 90 -380
0 -380 0 0 165 0 165 760 0 760 0 0 -2380z m640 1200 c234 -67 455 -130 493
-141 l67 -20 0 -1709 0 -1710 -510 0 -510 0 0 80 0 80 300 0 300 0 0 90 0 90
-300 0 -300 0 0 165 0 165 300 0 300 0 0 90 0 90 -300 0 -300 0 0 165 0 165
300 0 300 0 0 90 0 90 -300 0 -300 0 0 165 0 165 300 0 300 0 0 90 0 90 -300
0 -300 0 0 165 0 165 300 0 300 0 0 90 0 90 -300 0 -300 0 0 170 0 170 300 0
300 0 0 90 0 90 -300 0 -300 0 0 165 0 165 300 0 300 0 0 90 0 90 -300 0 -300
0 0 151 c0 138 1 150 18 145 9 -3 208 -60 442 -126z m1240 -2290 l0 -1290
-250 0 -250 0 0 80 0 80 125 0 125 0 0 90 0 90 -125 0 -125 0 0 165 0 165 125
0 125 0 0 90 0 90 -125 0 -125 0 0 165 0 165 125 0 125 0 0 90 0 90 -125 0
-125 0 0 165 0 165 125 0 125 0 0 90 0 90 -125 0 -125 0 0 165 0 165 125 0
125 0 0 90 0 90 -125 0 -125 0 0 225 0 225 250 -125 250 -125 0 -1290z m770
-236 c58 -52 83 -127 78 -229 -3 -56 -11 -93 -26 -122 -32 -62 -42 -62 -42 1
l0 56 -90 0 -90 0 0 -62 0 -63 -29 44 c-44 66 -58 158 -37 241 40 157 145 216
236 134z"/>
</g>
</svg>
