<?xml version="1.0" standalone="no"?>
<!DOCTYPE svg PUBLIC "-//W3C//DTD SVG 20010904//EN"
 "http://www.w3.org/TR/2001/REC-SVG-20010904/DTD/svg10.dtd">
<svg version="1.0" xmlns="http://www.w3.org/2000/svg"
 width="512.000000pt" height="512.000000pt" viewBox="0 0 512.000000 512.000000"
 preserveAspectRatio="xMidYMid meet">
<g transform="translate(0.000000,512.000000) scale(0.100000,-0.100000)"
fill="#000000" stroke="none">
<path d="M2765 3324 c-317 -33 -491 -90 -931 -304 l-220 -107 -205 -6 c-455
-14 -911 -90 -1124 -187 -129 -58 -226 -168 -267 -303 -18 -60 -20 -86 -15
-188 4 -90 10 -127 24 -150 35 -60 54 -67 247 -89 98 -11 181 -18 184 -15 3 3
-3 24 -12 47 -26 64 -32 190 -12 264 53 205 232 344 441 344 200 0 369 -122
435 -315 27 -77 27 -199 0 -275 -11 -30 -19 -58 -20 -62 0 -5 529 -8 1175 -8
646 0 1175 2 1175 4 0 2 -6 19 -14 37 -101 243 53 537 316 603 81 20 135 20
216 0 180 -45 314 -194 342 -381 11 -68 5 -144 -15 -195 -5 -13 -2 -18 11 -18
52 0 414 53 450 66 56 20 97 64 139 146 32 66 35 77 35 163 0 96 -9 137 -45
195 -11 19 -43 92 -69 162 -48 127 -69 158 -118 177 -14 5 -113 15 -220 22
l-193 12 -105 50 c-318 149 -612 237 -980 294 -92 14 -537 26 -625 17z m525
-129 c158 -20 295 -48 385 -78 86 -30 245 -99 245 -108 0 -3 -17 -27 -37 -53
l-38 -46 -877 0 c-696 0 -878 3 -878 13 0 6 -6 24 -14 39 -17 31 -15 34 59 71
183 91 425 153 710 181 72 7 317 -4 445 -19z"/>
<path d="M754 2546 c-98 -32 -181 -108 -228 -206 -28 -59 -31 -74 -31 -165 0
-93 2 -105 32 -166 39 -80 111 -150 191 -187 50 -24 69 -27 157 -27 92 0 106
3 167 32 156 74 239 230 216 408 -16 120 -100 235 -215 291 -49 24 -71 29
-153 31 -59 1 -111 -3 -136 -11z"/>
<path d="M3945 2547 c-156 -52 -251 -161 -276 -319 -27 -165 64 -333 221 -407
48 -23 68 -26 160 -26 92 0 112 3 160 26 156 74 247 241 221 404 -21 137 -97
241 -218 298 -54 25 -82 31 -148 34 -48 2 -96 -2 -120 -10z"/>
</g>
</svg>
