<?xml version="1.0" standalone="no"?>
<!DOCTYPE svg PUBLIC "-//W3C//DTD SVG 20010904//EN"
 "http://www.w3.org/TR/2001/REC-SVG-20010904/DTD/svg10.dtd">
         <svg version="1.0" xmlns="http://www.w3.org/2000/svg"
            width="72.000000pt" height="72.000000pt" viewBox="0 0 512.000000 550.000000"
              preserveAspectRatio="xMidYMid meet">
              <metadata>
              Created by potrace 1.16, written by Peter Selinger 2001-2019
              </metadata>
              <g transform="translate(0.000000,512.000000) scale(0.100000,-0.100000)"
              fill="#000000" stroke="none">
              <path d="M0 2560 l0 -1260 85 0 c61 0 85 3 85 13 0 18 58 684 65 745 l6 52
              365 0 c200 0 364 -3 364 -6 0 -10 90 -727 96 -766 6 -38 6 -38 55 -38 l49 0 0
              545 0 545 -455 0 -454 0 -5 33 c-4 26 -87 1363 -86 1390 0 4 -38 7 -85 7 l-85
              0 0 -1260z"/>
              <path d="M4926 3753 c-3 -38 -22 -331 -41 -653 -19 -322 -38 -613 -41 -647
              l-6 -63 -489 0 -489 0 0 -545 0 -545 85 0 c55 0 85 4 85 11 0 15 88 726 95
              767 l6 32 364 0 c297 0 365 -2 365 -13 0 -19 58 -682 65 -744 l6 -53 95 0 94
              0 0 1260 0 1260 -94 0 -94 0 -6 -67z"/>
              <path d="M748 3360 c-28 -17 -41 -74 -28 -116 21 -62 33 -64 440 -64 l360 0 0
              -940 0 -940 74 0 74 0 6 58 c3 31 26 350 51 707 25 358 47 674 51 703 l5 52
              739 0 739 0 5 -52 c3 -29 26 -348 51 -708 25 -360 47 -679 51 -707 l5 -53 70
              0 69 0 0 940 0 940 405 0 c457 0 464 1 485 64 14 43 -1 100 -30 116 -25 14
              -3599 13 -3622 0z m2492 -234 c0 -29 3 -68 6 -85 l7 -31 -733 0 -733 0 7 38
              c3 20 6 58 6 85 l0 47 720 0 720 0 0 -54z"/>
              <path d="M271 2538 c-5 -13 -5 -32 -1 -43 7 -20 18 -20 440 -23 311 -1 437 1
              446 9 17 14 18 51 2 67 -9 9 -122 12 -445 12 l-434 0 -8 -22z"/>
              <path d="M3872 2548 c-16 -16 -15 -53 2 -67 9 -8 135 -10 446 -9 422 3 433 3
              440 23 4 11 4 30 -1 43 l-8 22 -434 0 c-323 0 -436 -3 -445 -12z"/>
              </g>
              </svg>
