<?xml version="1.0" standalone="no"?>
<!DOCTYPE svg PUBLIC "-//W3C//DTD SVG 20010904//EN"
 "http://www.w3.org/TR/2001/REC-SVG-20010904/DTD/svg10.dtd">
<svg version="1.0" xmlns="http://www.w3.org/2000/svg"
 width="512.000000pt" height="512.000000pt" viewBox="0 0 512.000000 512.000000"
 preserveAspectRatio="xMidYMid meet">
<metadata>
Created by potrace 1.16, written by Peter Selinger 2001-2019
</metadata>
<g transform="translate(0.000000,512.000000) scale(0.100000,-0.100000)"
fill="#000000" stroke="none">
<path d="M1745 3398 c-81 -288 -154 -535 -161 -549 -8 -15 -28 -32 -45 -38
-22 -8 -206 -11 -585 -11 l-554 0 0 -160 0 -160 514 0 c344 0 523 -4 544 -11
26 -9 80 -80 304 -400 l272 -389 345 0 346 0 22 101 c42 192 150 370 301 495
84 70 241 147 352 174 116 27 284 27 400 0 190 -46 386 -173 497 -325 l22 -30
1 353 0 352 -690 0 c-379 0 -690 -3 -690 -6 0 -20 -62 -376 -71 -407 -18 -67
-17 -67 -547 -67 -317 0 -479 4 -501 11 -34 12 -51 35 -51 70 0 13 88 355 195
760 107 405 195 742 195 748 0 7 -43 11 -133 11 l-133 0 -149 -522z"/>
<path d="M2260 3420 c-27 -27 -26 -83 2 -128 17 -28 19 -36 7 -43 -8 -4 -45
-27 -83 -51 l-69 -44 -30 -112 c-16 -62 -27 -115 -25 -118 3 -3 74 38 157 91
148 93 171 104 171 86 0 -4 11 -20 25 -35 31 -33 94 -37 125 -6 41 41 28 83
-66 225 -47 72 -93 136 -102 143 -25 19 -89 15 -112 -8z"/>
<path d="M3140 3420 c-19 -19 -20 -33 -20 -240 l0 -220 80 0 80 0 0 220 c0
207 -1 221 -20 240 -13 13 -33 20 -60 20 -27 0 -47 -7 -60 -20z"/>
<path d="M4180 3420 c-19 -19 -20 -33 -20 -240 l0 -220 80 0 80 0 0 220 c0
207 -1 221 -20 240 -13 13 -33 20 -60 20 -27 0 -47 -7 -60 -20z"/>
<path d="M4552 3260 c-56 -35 -72 -72 -72 -177 0 -51 4 -93 8 -93 5 0 35 9 67
20 32 11 70 20 85 20 15 0 53 -9 85 -20 32 -11 62 -20 67 -20 4 0 8 42 8 93 0
74 -4 98 -20 125 -30 48 -75 72 -140 72 -37 0 -66 -6 -88 -20z"/>
<path d="M4553 2853 l-73 -25 0 -79 c0 -43 4 -79 8 -79 5 0 35 9 67 20 32 11
70 20 85 20 15 0 53 -9 85 -20 32 -11 62 -20 67 -20 4 0 8 36 8 79 l0 79 -78
26 c-42 14 -82 26 -87 25 -6 0 -43 -12 -82 -26z"/>
<path d="M2420 2620 c-13 -13 -20 -33 -20 -60 0 -27 7 -47 20 -60 18 -18 33
-20 169 -20 l149 0 11 63 c18 106 33 97 -149 97 -147 0 -162 -2 -180 -20z"/>
<path d="M4553 2533 l-73 -25 0 -41 c0 -87 66 -147 160 -147 94 0 160 60 160
147 l0 41 -78 26 c-42 14 -82 26 -87 25 -6 0 -43 -12 -82 -26z"/>
<path d="M400 2160 l0 -160 128 0 128 0 54 41 c110 83 215 114 361 107 117 -7
184 -29 278 -93 115 -78 195 -193 231 -332 l11 -43 130 0 131 0 -19 28 c-10
16 -110 160 -222 320 l-205 292 -503 0 -503 0 0 -160z"/>
<path d="M3412 2300 c-245 -65 -449 -270 -512 -516 -11 -43 -20 -83 -20 -91 0
-10 21 -13 85 -13 l84 0 11 43 c46 180 168 321 342 395 58 25 74 27 198 27
124 0 140 -2 198 -27 174 -74 296 -215 342 -395 l11 -43 84 0 c64 0 85 3 85
13 0 8 -9 48 -20 91 -63 248 -268 453 -516 516 -103 27 -270 26 -372 0z"/>
<path d="M913 1986 c-101 -33 -190 -113 -241 -216 -25 -50 -27 -65 -27 -170 0
-107 2 -119 29 -175 38 -77 114 -153 191 -191 56 -27 68 -29 175 -29 107 0
119 2 175 29 77 38 153 114 191 191 27 56 29 68 29 175 0 107 -2 119 -29 175
-38 77 -114 153 -191 190 -52 26 -72 30 -160 32 -64 2 -115 -2 -142 -11z m215
-172 c153 -63 191 -267 71 -381 -146 -138 -388 -36 -389 165 0 130 99 231 228
232 29 0 69 -7 90 -16z"/>
<path d="M980 1660 c-13 -13 -20 -33 -20 -60 0 -53 27 -80 80 -80 27 0 47 7
60 20 13 13 20 33 20 60 0 53 -27 80 -80 80 -27 0 -47 -7 -60 -20z"/>
<path d="M3473 1986 c-101 -33 -190 -113 -241 -216 -25 -50 -27 -65 -27 -170
0 -107 2 -119 29 -175 38 -77 114 -153 191 -191 56 -27 68 -29 175 -29 107 0
119 2 175 29 77 38 153 114 191 191 27 56 29 68 29 175 0 107 -2 119 -29 175
-38 77 -114 153 -191 190 -52 26 -72 30 -160 32 -64 2 -115 -2 -142 -11z m215
-172 c85 -35 142 -120 142 -214 0 -203 -242 -306 -389 -167 -149 142 -49 396
157 397 29 0 69 -7 90 -16z"/>
<path d="M3540 1660 c-13 -13 -20 -33 -20 -60 0 -53 27 -80 80 -80 53 0 80 27
80 80 0 27 -7 47 -20 60 -13 13 -33 20 -60 20 -27 0 -47 -7 -60 -20z"/>
<path d="M320 1760 l0 -80 85 0 84 0 11 43 c6 23 18 59 25 80 l15 37 -110 0
-110 0 0 -80z"/>
<path d="M4480 1760 l0 -80 80 0 80 0 0 80 0 80 -80 0 -80 0 0 -80z"/>
</g>
</svg>
