<?xml version="1.0" standalone="no"?>
<!DOCTYPE svg PUBLIC "-//W3C//DTD SVG 20010904//EN"
 "http://www.w3.org/TR/2001/REC-SVG-20010904/DTD/svg10.dtd">
<svg version="1.0" xmlns="http://www.w3.org/2000/svg"
 width="512.000000pt" height="512.000000pt" viewBox="0 0 512.000000 512.000000"
 preserveAspectRatio="xMidYMid meet">
<metadata>
Created by potrace 1.16, written by Peter Selinger 2001-2019
</metadata>
<g transform="translate(0.000000,512.000000) scale(0.100000,-0.100000)"
fill="#000000" stroke="none">
<path d="M752 5097 c-22 -23 -22 -28 -22 -358 l0 -334 -311 -372 -311 -373
-54 -297 c-29 -164 -54 -327 -54 -362 0 -194 122 -387 303 -476 l77 -38 0
-1217 c0 -1216 0 -1217 21 -1244 l20 -26 283 0 c282 0 283 0 304 23 23 25 29
75 12 107 -18 33 -66 40 -271 40 l-199 0 0 1144 0 1144 68 6 c168 16 287 71
392 183 39 41 70 71 70 66 0 -4 20 -32 45 -60 54 -61 144 -124 220 -152 126
-47 334 -45 458 4 75 31 173 103 224 168 l38 47 19 -27 c64 -92 194 -180 306
-209 86 -22 254 -22 340 0 112 29 242 117 306 209 l19 27 38 -47 c51 -65 149
-137 224 -168 124 -49 332 -51 458 -4 76 28 166 91 220 152 25 28 45 56 45 60
0 5 31 -25 70 -66 105 -112 224 -167 393 -183 l67 -6 0 -1144 0 -1144 -140 0
-140 0 0 930 c0 659 -3 936 -11 953 -6 14 -22 30 -36 36 -36 16 -1212 15
-1234 -2 -39 -30 -39 -27 -39 -986 l0 -931 -900 -2 -899 -3 -23 -23 c-32 -31
-31 -97 1 -123 23 -18 71 -19 1786 -19 l1764 0 20 26 c21 27 21 28 21 1244 l0
1217 77 38 c181 89 303 282 303 476 0 35 -25 198 -54 362 l-54 297 -311 373
-311 372 0 336 0 336 -23 21 -23 22 -1785 0 -1786 0 -21 -23z m3468 -387 l0
-240 -1660 0 -1660 0 0 240 0 240 1660 0 1660 0 0 -240z m-2842 -419 c-1 -5
-66 -138 -142 -295 l-139 -286 -360 0 c-342 0 -359 1 -345 18 8 9 119 142 247
295 l232 277 255 0 c151 0 254 -4 252 -9z m732 -3 c0 -7 -20 -139 -43 -293
l-43 -280 -367 -3 -366 -2 68 142 c38 79 103 212 145 296 l76 152 265 0 c205
0 265 -3 265 -12z m766 -268 c24 -151 43 -283 43 -292 1 -17 -23 -18 -359 -18
-198 0 -360 3 -360 8 0 13 81 556 86 570 3 10 63 12 276 10 l272 -3 42 -275z
m740 128 c42 -84 107 -217 145 -296 l68 -142 -366 2 -367 3 -43 280 c-23 154
-43 286 -43 293 0 9 60 12 265 12 l265 0 76 -152z m865 -125 c128 -153 239
-286 247 -295 14 -17 -3 -18 -345 -18 l-360 0 -139 286 c-76 157 -140 290
-142 295 -2 5 101 9 252 9 l255 0 232 -277z m-3431 -495 c0 -2 -18 -141 -39
-311 -43 -340 -53 -375 -131 -456 -90 -93 -176 -124 -323 -119 -85 2 -111 7
-160 30 -120 57 -212 179 -224 301 -4 46 24 228 78 505 l10 52 395 0 c217 0
394 -1 394 -2z m952 -60 c-17 -362 -31 -526 -51 -577 -29 -77 -68 -129 -134
-177 -79 -59 -146 -77 -272 -72 -89 3 -108 7 -165 35 -109 54 -184 149 -211
269 -11 49 -9 84 21 320 l34 264 390 0 391 0 -3 -62z m942 10 c3 -29 11 -150
17 -269 9 -189 9 -224 -5 -278 -29 -114 -112 -213 -222 -263 -43 -20 -65 -23
-174 -23 -109 0 -131 3 -174 23 -110 50 -193 149 -222 263 -14 54 -14 89 -5
278 6 119 14 240 17 269 l5 52 379 0 379 0 5 -52z m986 -218 c33 -266 33 -271
16 -331 -33 -119 -107 -207 -214 -257 -75 -35 -227 -43 -314 -17 -69 20 -162
86 -201 142 -65 94 -75 163 -99 671 l-3 62 391 0 391 0 33 -270z m939 218 c54
-277 82 -459 78 -505 -12 -122 -104 -244 -224 -301 -49 -23 -75 -28 -160 -30
-147 -5 -233 26 -323 119 -78 81 -88 116 -131 456 -21 170 -39 309 -39 311 0
1 177 2 394 2 l395 0 10 -52z m-749 -1678 l0 -130 -490 0 -490 0 0 130 0 130
490 0 490 0 0 -130z m0 -965 l0 -665 -490 0 -490 0 0 665 0 665 490 0 490 0 0
-665z"/>
<path d="M1124 4786 c-67 -29 -62 -131 6 -155 24 -8 416 -11 1442 -11 1538 0
1466 -3 1488 56 14 35 5 77 -22 100 -19 18 -73 19 -1452 21 -1190 2 -1436 0
-1462 -11z"/>
<path d="M903 2088 c-12 -6 -27 -24 -32 -41 -15 -41 -15 -1045 -1 -1083 22
-56 -24 -53 916 -54 856 0 871 0 892 20 11 11 24 35 27 52 3 18 5 266 3 551
l-3 519 -28 24 -28 24 -862 -1 c-586 0 -869 -4 -884 -11z m1637 -583 l0 -425
-755 0 -755 0 0 425 0 425 755 0 755 0 0 -425z"/>
</g>
</svg>
