<?xml version="1.0" standalone="no"?>
<!DOCTYPE svg PUBLIC "-//W3C//DTD SVG 20010904//EN"
 "http://www.w3.org/TR/2001/REC-SVG-20010904/DTD/svg10.dtd">
<svg version="1.0" xmlns="http://www.w3.org/2000/svg"
 width="512.000000pt" height="512.000000pt" viewBox="0 0 512.000000 512.000000"
 preserveAspectRatio="xMidYMid meet">
<metadata>
Created by potrace 1.16, written by Peter Selinger 2001-2019
</metadata>
<g transform="translate(0.000000,512.000000) scale(0.100000,-0.100000)"
fill="#000000" stroke="none">
<path d="M1500 3760 l0 -150 -527 0 -528 0 -223 -503 -222 -502 0 -547 0 -548
310 0 309 0 19 -42 c115 -254 454 -340 681 -173 65 48 112 105 143 173 l19 42
929 0 929 0 19 -43 c49 -108 155 -202 269 -237 133 -41 303 -18 397 54 43 32
49 32 92 0 119 -91 350 -100 481 -18 146 91 223 226 223 388 0 135 -36 229
-123 323 l-40 43 232 0 231 0 0 945 0 945 -1810 0 -1810 0 0 -150z m-500 -750
l0 -300 -306 0 c-168 0 -304 4 -302 9 2 4 61 139 133 300 l129 291 173 0 173
0 0 -300z m2320 -1095 l0 -105 -760 0 -760 0 0 105 0 105 760 0 760 0 0 -105z
m-2196 -134 c89 -59 89 -183 0 -242 -61 -40 -152 -18 -195 47 -40 61 -18 152
47 195 38 25 110 25 148 0z m2720 0 c43 -29 66 -70 66 -121 0 -80 -60 -140
-140 -140 -80 0 -140 60 -140 140 0 80 60 140 140 140 27 0 56 -8 74 -19z
m600 0 c43 -29 66 -70 66 -121 0 -80 -60 -140 -140 -140 -80 0 -140 60 -140
140 0 80 60 140 140 140 27 0 56 -8 74 -19z"/>
</g>
</svg>
